<?xml version="1.0" encoding="utf-8"?>
<svg id="master-artboard" viewBox="0 0 6060.02294921875 316.3205871582031" version="1.1" xmlns="http://www.w3.org/2000/svg" x="0px" y="0px" style="enable-background:new 0 0 1400 980;" width="6060.02294921875px" height="316.3205871582031px"><defs><style id="ee-google-fonts">@import url(https://fonts.googleapis.com/css?family=Convergence:400);</style></defs><rect id="ee-background" x="0" y="0" width="6060.02294921875" height="316.3205871582031" style="fill: white; fill-opacity: 0; pointer-events: none;"/><g transform="matrix(13.725491523742676, 0, 0, 13.725491523742676, -951.86279296875, -200.7400360107422)"><g id="g3057">
	<title id="title3059">Layer 1</title>
	<g id="svg_1">
		<path d="M 77.583 22.613001 H 83.828 V 28.858001 H 77.583 V 22.613001 Z" id="svg_2" fill="#C0D028"/>
		<g id="svg_3">
			<path d="M 86.655998 24.09 H 90.157998 V 27.592 H 86.655998 V 24.09 Z" id="svg_4" fill="#FFFFFF" stroke="#808285" stroke-width="0.4225"/>
			<path d="M 78.469002 15.355 H 82.984002 V 19.869999 H 78.469002 V 15.355 Z" id="svg_5" fill="#FFFFFF" stroke="#808285" stroke-width="0.6761"/>
			<path d="M 69.777 22.950001 H 75.346 V 28.521001 H 69.777 V 22.950001 Z" id="svg_6" fill="#FFFFFF" stroke="#808285" stroke-width="1.0563"/>
			<path d="M 70.832001 30.841999 H 74.292001 V 34.301999 H 70.832001 V 30.841999 Z" id="svg_7" fill="#FFFFFF" stroke="#808285" stroke-width="0.4225"/>
			<path d="M 77.877998 31.389999 H 83.531998 V 37.043999 H 77.877998 V 31.389999 Z" id="svg_8" fill="#FFFFFF" stroke="#808285" stroke-width="0.8451"/>
			<path d="M 86.022003 30.546 H 90.790003 V 35.315 H 86.022003 V 30.546 Z" id="svg_9" fill="#FFFFFF" stroke="#808285" stroke-width="0.6338"/>
		</g>
		<g id="svg_10">
			<path id="svg_11" fill="#808285" d="M100.773,19.521h3.095c3.254,0,5.873,2.937,5.873,6.588&#10;&#9;&#9;&#9;&#9;c0,3.651-2.619,6.588-5.873,6.588c-0.318,0-3.095,0-3.095,0V19.521L100.773,19.521z M102.916,30.474h0.873&#10;&#9;&#9;&#9;&#9;c1.905,0,3.492-1.984,3.492-4.365c0-2.381-1.587-4.365-3.492-4.365c-0.317,0-0.873,0-0.873,0V30.474z"/>
			<path id="svg_12" fill="#C0D028" d="M116.885,32.855c-1.428,0-2.46-0.477-3.73-1.429&#10;&#9;&#9;&#9;&#9;l0.238-1.984c1.349,0.715,2.381,1.191,3.492,1.191c0.953,0,2.223-0.556,2.223-1.588c0-2.46-6.19-1.509-6.19-5.953&#10;&#9;&#9;&#9;&#9;c0-2.301,1.984-3.889,4.365-3.889c1.508,0,2.46,0.476,3.809,1.588l-0.714,1.746c-0.953-0.635-2.063-1.111-3.095-1.111&#10;&#9;&#9;&#9;&#9;c-1.35,0-2.143,0.714-2.143,1.508c0,2.381,6.19,1.747,6.19,5.794C121.489,31.507,119.267,32.855,116.885,32.855L116.885,32.855z"/>
			<path id="svg_13" fill="#C0D028" d="M134.029,23.966c0,2.382-1.983,4.366-4.365,4.366&#10;&#9;&#9;&#9;&#9;c-0.159,0-2.619,0-2.619,0v4.365h-2.223V19.521h4.842C132.045,19.521,134.029,21.506,134.029,23.966L134.029,23.966z&#10;&#9;&#9;&#9;&#9; M131.806,23.966c0-1.19-0.951-2.222-2.222-2.222c-0.238,0-2.619,0-2.619,0v4.365h2.619&#10;&#9;&#9;&#9;&#9;C130.855,26.109,131.806,25.157,131.806,23.966z"/>
			<path id="svg_14" fill="#C0D028" d="M140.14,32.697h-2.223v-8.334c0-3.254,1.984-5,4.365-5&#10;&#9;&#9;&#9;&#9;c2.461,0,4.365,1.826,4.365,5v8.334h-2.222v-4.365h-4.365v4.365H140.14L140.14,32.697z M144.506,24.363&#10;&#9;&#9;&#9;&#9;c0-1.905-0.953-2.857-2.224-2.857c-1.189,0-2.222,0.953-2.222,2.857v1.746h4.365v-1.746H144.506L144.506,24.363z"/>
			<path id="svg_15" fill="#C0D028" d="M156.411,19.363c1.588,0,3.334,1.032,4.207,2.54&#10;&#9;&#9;&#9;&#9;l-1.35,1.19c-0.873-1.111-1.746-1.587-2.777-1.587c-1.746,0-3.254,1.746-3.254,4.604c0,2.856,1.508,4.604,3.254,4.604&#10;&#9;&#9;&#9;&#9;c0.952,0,1.904-0.477,2.777-1.588l1.35,1.191c-0.952,1.508-2.619,2.539-4.207,2.539c-3.333,0-5.555-3.016-5.555-6.746&#10;&#9;&#9;&#9;&#9;S153.078,19.363,156.411,19.363L156.411,19.363L156.411,19.363z"/>
			<path id="svg_16" fill="#C0D028" d="M164.189,19.521h6.588v2.223h-4.365v2.619h4.365v2.222&#10;&#9;&#9;&#9;&#9;h-4.365v3.968h4.365v2.223h-6.588V19.521L164.189,19.521z"/>
		</g>
	</g>
</g><path d="M 178.43316650390625 28.621862411499023 L 180.85316467285156 21.431861877441406 C 180.906494140625 21.28519630432129 181.02650451660156 21.211862564086914 181.21316528320312 21.211862564086914 C 181.2864990234375 21.211862564086914 181.6498260498047 21.23519515991211 182.30316162109375 21.281862258911133 L 184.7431640625 28.621862411499023 L 183.55316162109375 28.621862411499023 L 182.88316345214844 26.481863021850586 L 180.30316162109375 26.481863021850586 L 179.65316772460938 28.621862411499023 L 178.43316650390625 28.621862411499023 M 180.58316040039062 25.56186294555664 L 182.60316467285156 25.56186294555664 L 181.58316040039062 22.26186180114746 L 181.58316040039062 22.321861267089844 L 180.58316040039062 25.56186294555664 ZM 187.60955810546875 28.741863250732422 C 187.60955810546875 28.741863250732422 187.41622924804688 28.741863250732422 187.02955627441406 28.741863250732422 C 186.63623046875 28.741863250732422 186.22955322265625 28.47852897644043 185.80955505371094 27.951862335205078 C 185.38955688476562 27.418529510498047 185.1795654296875 26.738529205322266 185.1795654296875 25.911861419677734 C 185.1795654296875 25.085195541381836 185.40289306640625 24.40186309814453 185.8495635986328 23.861862182617188 C 186.30288696289062 23.321861267089844 186.9262237548828 23.051862716674805 187.7195587158203 23.051862716674805 C 188.38623046875 23.051862716674805 188.9995574951172 23.1951961517334 189.55955505371094 23.481863021850586 L 189.2495574951172 24.22186279296875 C 188.78956604003906 24.015195846557617 188.35289001464844 23.911861419677734 187.93955993652344 23.911861419677734 C 187.39956665039062 23.911861419677734 186.9995574951172 24.091861724853516 186.73956298828125 24.451862335205078 C 186.472900390625 24.81186294555664 186.3395538330078 25.26186180114746 186.3395538330078 25.801862716674805 C 186.3395538330078 27.1951961517334 186.876220703125 27.891862869262695 187.94955444335938 27.891862869262695 C 188.35623168945312 27.891862869262695 188.77622985839844 27.775196075439453 189.20956420898438 27.54186248779297 L 189.56956481933594 28.251861572265625 C 189.0428924560547 28.578529357910156 188.38955688476562 28.741863250732422 187.60955810546875 28.741863250732422 ZM 194.959228515625 23.51186180114746 L 194.959228515625 27.321863174438477 C 194.959228515625 27.56186294555664 194.98590087890625 27.72186279296875 195.0392303466797 27.801862716674805 C 195.09255981445312 27.88186264038086 195.22589111328125 27.92186164855957 195.43922424316406 27.92186164855957 L 195.47923278808594 28.56186294555664 C 195.31256103515625 28.621862411499023 195.132568359375 28.65186309814453 194.93922424316406 28.65186309814453 C 194.40589904785156 28.65186309814453 194.0892333984375 28.411863327026367 193.98922729492188 27.931861877441406 C 193.6292266845703 28.47186279296875 193.09922790527344 28.741863250732422 192.39923095703125 28.741863250732422 C 191.69256591796875 28.741863250732422 191.1658935546875 28.481863021850586 190.81922912597656 27.961862564086914 C 190.47923278808594 27.435195922851562 190.30923461914062 26.758529663085938 190.30923461914062 25.931861877441406 C 190.30923461914062 25.105195999145508 190.5425567626953 24.418529510498047 191.0092315673828 23.871862411499023 C 191.48255920410156 23.3251953125 192.11256408691406 23.051862716674805 192.89923095703125 23.051862716674805 C 193.21922302246094 23.051862716674805 193.59255981445312 23.10186195373535 194.01922607421875 23.201862335205078 C 194.43922424316406 23.301862716674805 194.7525634765625 23.405195236206055 194.959228515625 23.51186180114746 M 191.46922302246094 26.021862030029297 C 191.46922302246094 26.021862030029297 191.46922302246094 26.185195922851562 191.46922302246094 26.51186180114746 C 191.46922302246094 26.845195770263672 191.56922912597656 27.15852928161621 191.76922607421875 27.451862335205078 C 191.96922302246094 27.745195388793945 192.26255798339844 27.891862869262695 192.64923095703125 27.891862869262695 C 193.02923583984375 27.891862869262695 193.32589721679688 27.75519561767578 193.5392303466797 27.481863021850586 C 193.7525634765625 27.21519660949707 193.85922241210938 26.885196685791016 193.85922241210938 26.491863250732422 L 193.85922241210938 24.04186248779297 C 193.59255981445312 23.955196380615234 193.2892303466797 23.911861419677734 192.94923400878906 23.911861419677734 C 192.43589782714844 23.911861419677734 192.05923461914062 24.098529815673828 191.81922912597656 24.47186279296875 C 191.5858917236328 24.845195770263672 191.46922302246094 25.361862182617188 191.46922302246094 26.021862030029297 ZM 201.16990661621094 20.79186248779297 L 201.16990661621094 27.35186195373535 C 201.16990661621094 27.591861724853516 201.1999053955078 27.745195388793945 201.25990295410156 27.81186294555664 C 201.31324768066406 27.885196685791016 201.4432373046875 27.92186164855957 201.64990234375 27.92186164855957 L 201.68991088867188 28.56186294555664 C 201.5232391357422 28.621862411499023 201.34324645996094 28.65186309814453 201.14990234375 28.65186309814453 C 200.6165771484375 28.65186309814453 200.29991149902344 28.411863327026367 200.1999053955078 27.931861877441406 C 199.83990478515625 28.47186279296875 199.30323791503906 28.741863250732422 198.58990478515625 28.741863250732422 C 197.97657775878906 28.741863250732422 197.4799041748047 28.508529663085938 197.09991455078125 28.04186248779297 C 196.71324157714844 27.581863403320312 196.51991271972656 26.898529052734375 196.51991271972656 25.991863250732422 C 196.51991271972656 25.085195541381836 196.7432403564453 24.368528366088867 197.18991088867188 23.841861724853516 C 197.63658142089844 23.315195083618164 198.30323791503906 23.051862716674805 199.18991088867188 23.051862716674805 C 199.46324157714844 23.051862716674805 199.75657653808594 23.088529586791992 200.0699005126953 23.161861419677734 L 200.0699005126953 20.931861877441406 L 201.16990661621094 20.79186248779297 M 197.9899139404297 27.451862335205078 C 197.9899139404297 27.451862335205078 198.03990173339844 27.525196075439453 198.13990783691406 27.67186164855957 C 198.2399139404297 27.81852912902832 198.48324584960938 27.891862869262695 198.86990356445312 27.891862869262695 C 199.24990844726562 27.891862869262695 199.54324340820312 27.75519561767578 199.74990844726562 27.481863021850586 C 199.96324157714844 27.208528518676758 200.0699005126953 26.885196685791016 200.0699005126953 26.51186180114746 L 200.0699005126953 24.04186248779297 C 199.83657836914062 23.955196380615234 199.53323364257812 23.911861419677734 199.159912109375 23.911861419677734 C 198.6132354736328 23.911861419677734 198.2299041748047 24.088529586791992 198.00990295410156 24.441862106323242 C 197.78990173339844 24.795196533203125 197.67990112304688 25.31186294555664 197.67990112304688 25.991863250732422 C 197.67990112304688 26.678529739379883 197.78323364257812 27.16519546508789 197.9899139404297 27.451862335205078 ZM 206.83058166503906 27.461862564086914 L 207.21058654785156 28.15186309814453 C 207.09059143066406 28.258529663085938 206.8439178466797 28.385196685791016 206.4705810546875 28.531862258911133 C 206.09725952148438 28.67186164855957 205.69725036621094 28.741863250732422 205.2705841064453 28.741863250732422 C 204.51058959960938 28.741863250732422 203.89724731445312 28.51186180114746 203.4305877685547 28.051862716674805 C 202.9639129638672 27.591861724853516 202.7305908203125 26.898529052734375 202.7305908203125 25.97186279296875 C 202.7305908203125 25.458528518676758 202.8105926513672 25.008529663085938 202.9705810546875 24.621862411499023 C 203.1372528076172 24.22852897644043 203.3505859375 23.921863555908203 203.61058044433594 23.701862335205078 C 204.1372528076172 23.26852798461914 204.69058227539062 23.051862716674805 205.2705841064453 23.051862716674805 C 205.8572540283203 23.051862716674805 206.32058715820312 23.198528289794922 206.66058349609375 23.491863250732422 C 207.0072479248047 23.79186248779297 207.1805877685547 24.155195236206055 207.1805877685547 24.581863403320312 C 207.1805877685547 25.148529052734375 206.91058349609375 25.60852813720703 206.37059020996094 25.961862564086914 C 205.83724975585938 26.321863174438477 204.9772491455078 26.501861572265625 203.79058837890625 26.501861572265625 C 203.79058837890625 26.815195083618164 203.9205780029297 27.12519645690918 204.1805877685547 27.431861877441406 C 204.44725036621094 27.738529205322266 204.83724975585938 27.891862869262695 205.3505859375 27.891862869262695 C 205.86392211914062 27.891862869262695 206.3572540283203 27.7485294342041 206.83058166503906 27.461862564086914 M 206.19058227539062 24.67186164855957 C 206.19058227539062 24.47186279296875 206.11392211914062 24.295196533203125 205.96058654785156 24.141862869262695 C 205.8072509765625 23.988529205322266 205.59059143066406 23.911861419677734 205.3105926513672 23.911861419677734 C 204.86392211914062 23.911861419677734 204.49391174316406 24.078529357910156 204.20059204101562 24.411861419677734 C 203.91392517089844 24.751861572265625 203.7672576904297 25.191862106323242 203.76058959960938 25.731863021850586 C 205.38058471679688 25.731863021850586 206.19058227539062 25.378528594970703 206.19058227539062 24.67186164855957 ZM 208.66561889648438 24.911861419677734 C 208.66561889648438 24.29852867126465 208.60562133789062 23.745195388793945 208.48561096191406 23.251861572265625 L 209.3356170654297 23.141862869262695 L 209.53561401367188 23.65186309814453 C 210.10894775390625 23.251861572265625 210.70228576660156 23.051862716674805 211.31561279296875 23.051862716674805 C 211.9222869873047 23.051862716674805 212.3689422607422 23.2485294342041 212.65560913085938 23.641862869262695 C 213.20228576660156 23.2485294342041 213.7922821044922 23.051862716674805 214.4256134033203 23.051862716674805 C 215.05227661132812 23.051862716674805 215.505615234375 23.218528747558594 215.78561401367188 23.551862716674805 C 216.07228088378906 23.885196685791016 216.21560668945312 24.385196685791016 216.21560668945312 25.051862716674805 L 216.21560668945312 28.621862411499023 L 215.11561584472656 28.621862411499023 L 215.11561584472656 25.251861572265625 C 215.11561584472656 24.591861724853516 214.95895385742188 24.181861877441406 214.64561462402344 24.021862030029297 C 214.505615234375 23.948528289794922 214.332275390625 23.911861419677734 214.1256103515625 23.911861419677734 C 213.77227783203125 23.911861419677734 213.3756103515625 24.065195083618164 212.93560791015625 24.371862411499023 C 212.97561645507812 24.578529357910156 212.99562072753906 24.805194854736328 212.99562072753906 25.051862716674805 L 212.99562072753906 28.621862411499023 L 211.89561462402344 28.621862411499023 L 211.89561462402344 25.251861572265625 C 211.89561462402344 24.831863403320312 211.832275390625 24.501861572265625 211.7056121826172 24.26186180114746 C 211.57894897460938 24.02853012084961 211.31561279296875 23.911861419677734 210.91561889648438 23.911861419677734 C 210.52227783203125 23.911861419677734 210.13894653320312 24.058528900146484 209.76560974121094 24.35186195373535 L 209.76560974121094 28.621862411499023 L 208.66561889648438 28.621862411499023 L 208.66561889648438 24.911861419677734 ZM 218.6279296875 20.871862411499023 C 218.80125427246094 20.871862411499023 218.94459533691406 20.925195693969727 219.05792236328125 21.031862258911133 C 219.1712646484375 21.13186264038086 219.22792053222656 21.288528442382812 219.22792053222656 21.501861572265625 C 219.22792053222656 21.941862106323242 218.9979248046875 22.161861419677734 218.5379180908203 22.161861419677734 C 218.3712615966797 22.161861419677734 218.23458862304688 22.111862182617188 218.1279296875 22.01186180114746 C 218.02125549316406 21.905195236206055 217.96792602539062 21.7485294342041 217.96792602539062 21.54186248779297 C 217.96792602539062 21.095195770263672 218.18792724609375 20.871862411499023 218.6279296875 20.871862411499023 M 218.0479278564453 28.621862411499023 L 218.0479278564453 23.241863250732422 L 219.14791870117188 23.10186195373535 L 219.14791870117188 28.621862411499023 L 218.0479278564453 28.621862411499023 ZM 225.30894470214844 23.51186180114746 L 225.30894470214844 27.321863174438477 C 225.30894470214844 27.56186294555664 225.3356170654297 27.72186279296875 225.38894653320312 27.801862716674805 C 225.44227600097656 27.88186264038086 225.5756072998047 27.92186164855957 225.7889404296875 27.92186164855957 L 225.82894897460938 28.56186294555664 C 225.6622772216797 28.621862411499023 225.48228454589844 28.65186309814453 225.2889404296875 28.65186309814453 C 224.755615234375 28.65186309814453 224.43894958496094 28.411863327026367 224.3389434814453 27.931861877441406 C 223.97894287109375 28.47186279296875 223.44894409179688 28.741863250732422 222.7489471435547 28.741863250732422 C 222.0422821044922 28.741863250732422 221.51560974121094 28.481863021850586 221.1689453125 27.961862564086914 C 220.82894897460938 27.435195922851562 220.65895080566406 26.758529663085938 220.65895080566406 25.931861877441406 C 220.65895080566406 25.105195999145508 220.89227294921875 24.418529510498047 221.35894775390625 23.871862411499023 C 221.832275390625 23.3251953125 222.4622802734375 23.051862716674805 223.2489471435547 23.051862716674805 C 223.56893920898438 23.051862716674805 223.94227600097656 23.10186195373535 224.3689422607422 23.201862335205078 C 224.7889404296875 23.301862716674805 225.10227966308594 23.405195236206055 225.30894470214844 23.51186180114746 M 221.81893920898438 26.021862030029297 C 221.81893920898438 26.021862030029297 221.81893920898438 26.185195922851562 221.81893920898438 26.51186180114746 C 221.81893920898438 26.845195770263672 221.9189453125 27.15852928161621 222.1189422607422 27.451862335205078 C 222.31893920898438 27.745195388793945 222.61227416992188 27.891862869262695 222.9989471435547 27.891862869262695 C 223.3789520263672 27.891862869262695 223.6756134033203 27.75519561767578 223.88894653320312 27.481863021850586 C 224.10227966308594 27.21519660949707 224.2089385986328 26.885196685791016 224.2089385986328 26.491863250732422 L 224.2089385986328 24.04186248779297 C 223.94227600097656 23.955196380615234 223.63894653320312 23.911861419677734 223.2989501953125 23.911861419677734 C 222.78561401367188 23.911861419677734 222.40895080566406 24.098529815673828 222.1689453125 24.47186279296875 C 221.93560791015625 24.845195770263672 221.81893920898438 25.361862182617188 221.81893920898438 26.021862030029297 ZM 230.43710327148438 28.621862411499023 L 230.43710327148438 21.331863403320312 C 231.26376342773438 21.251861572265625 232.19375610351562 21.211862564086914 233.2270965576172 21.211862564086914 C 234.10043334960938 21.211862564086914 234.8170928955078 21.515195846557617 235.37709045410156 22.121862411499023 C 235.93710327148438 22.72852897644043 236.21710205078125 23.63186264038086 236.21710205078125 24.831863403320312 C 236.21710205078125 26.031862258911133 235.93043518066406 26.975194931030273 235.3571014404297 27.661863327026367 C 234.777099609375 28.341861724853516 233.89376831054688 28.681861877441406 232.70709228515625 28.681861877441406 C 231.51376342773438 28.681861877441406 230.75709533691406 28.661863327026367 230.43710327148438 28.621862411499023 M 231.5970916748047 27.72186279296875 C 232.01043701171875 27.7485294342041 232.46043395996094 27.76186180114746 232.9470977783203 27.76186180114746 C 233.71376037597656 27.76186180114746 234.25376892089844 27.51186180114746 234.5670928955078 27.01186180114746 C 234.87376403808594 26.51186180114746 235.027099609375 25.781862258911133 235.027099609375 24.821863174438477 C 235.027099609375 23.855195999145508 234.853759765625 23.16519546508789 234.50709533691406 22.751861572265625 C 234.1537628173828 22.338529586791992 233.66375732421875 22.13186264038086 233.03709411621094 22.13186264038086 C 232.75709533691406 22.13186264038086 232.277099609375 22.15186309814453 231.5970916748047 22.191862106323242 L 231.5970916748047 27.72186279296875 ZM 238.43275451660156 20.871862411499023 C 238.6060791015625 20.871862411499023 238.74942016601562 20.925195693969727 238.8627471923828 21.031862258911133 C 238.97607421875 21.13186264038086 239.03274536132812 21.288528442382812 239.03274536132812 21.501861572265625 C 239.03274536132812 21.941862106323242 238.80274963378906 22.161861419677734 238.34274291992188 22.161861419677734 C 238.17608642578125 22.161861419677734 238.03941345214844 22.111862182617188 237.93275451660156 22.01186180114746 C 237.82608032226562 21.905195236206055 237.7727508544922 21.7485294342041 237.7727508544922 21.54186248779297 C 237.7727508544922 21.095195770263672 237.9927520751953 20.871862411499023 238.43275451660156 20.871862411499023 M 237.85275268554688 28.621862411499023 L 237.85275268554688 23.241863250732422 L 238.95274353027344 23.10186195373535 L 238.95274353027344 28.621862411499023 L 237.85275268554688 28.621862411499023 ZM 240.99378967285156 30.781862258911133 L 240.99378967285156 24.63186264038086 C 240.99378967285156 24.251861572265625 240.9337921142578 23.79186248779297 240.81378173828125 23.251861572265625 L 241.66378784179688 23.141862869262695 L 241.85379028320312 23.591861724853516 C 242.35379028320312 23.231863021850586 242.8771209716797 23.051862716674805 243.4237823486328 23.051862716674805 C 244.11712646484375 23.051862716674805 244.6604461669922 23.305194854736328 245.0537872314453 23.81186294555664 C 245.44711303710938 24.31852912902832 245.64378356933594 25.00519561767578 245.64378356933594 25.871862411499023 C 245.64378356933594 26.738529205322266 245.4337921142578 27.435195922851562 245.01377868652344 27.961862564086914 C 244.59378051757812 28.481863021850586 244.01377868652344 28.741863250732422 243.27378845214844 28.741863250732422 C 242.8337860107422 28.741863250732422 242.44044494628906 28.65186309814453 242.09378051757812 28.47186279296875 L 242.09378051757812 30.781862258911133 L 240.99378967285156 30.781862258911133 M 243.14378356933594 23.911861419677734 C 242.82379150390625 23.911861419677734 242.47378540039062 24.038528442382812 242.09378051757812 24.29186248779297 L 242.09378051757812 27.611862182617188 C 242.36712646484375 27.79852867126465 242.68711853027344 27.891862869262695 243.0537872314453 27.891862869262695 C 243.56045532226562 27.891862869262695 243.9237823486328 27.731863021850586 244.14378356933594 27.411861419677734 C 244.37045288085938 27.091861724853516 244.48377990722656 26.56852912902832 244.48377990722656 25.841861724853516 C 244.48377990722656 25.10852813720703 244.37045288085938 24.605195999145508 244.14378356933594 24.331863403320312 C 243.9237823486328 24.051862716674805 243.5904541015625 23.911861419677734 243.14378356933594 23.911861419677734 ZM 247.15347290039062 20.931861877441406 L 248.2534637451172 20.79186248779297 L 248.2534637451172 26.941862106323242 C 248.2534637451172 27.5751953125 248.4334716796875 27.891862869262695 248.79347229003906 27.891862869262695 C 248.88014221191406 27.891862869262695 249.04347229003906 27.865196228027344 249.28346252441406 27.81186294555664 L 249.41346740722656 28.571863174438477 C 249.40679931640625 28.571863174438477 249.38014221191406 28.58186149597168 249.33346557617188 28.60186195373535 C 249.28013610839844 28.621862411499023 249.2201385498047 28.641862869262695 249.15347290039062 28.661863327026367 C 248.98013305664062 28.71519660949707 248.77346801757812 28.741863250732422 248.53346252441406 28.741863250732422 C 248.0601348876953 28.741863250732422 247.71347045898438 28.585195541381836 247.49346923828125 28.271862030029297 C 247.2667999267578 27.951862335205078 247.15347290039062 27.515195846557617 247.15347290039062 26.961862564086914 L 247.15347290039062 20.931861877441406 ZM 252.5874786376953 23.051862716674805 C 253.25413513183594 23.051862716674805 253.80413818359375 23.28519630432129 254.2374725341797 23.751861572265625 C 254.67747497558594 24.218528747558594 254.89747619628906 24.90186309814453 254.89747619628906 25.801862716674805 C 254.89747619628906 26.708528518676758 254.6741485595703 27.425195693969727 254.22747802734375 27.951862335205078 C 253.7808074951172 28.47852897644043 253.11080932617188 28.741863250732422 252.21746826171875 28.741863250732422 C 251.55747985839844 28.741863250732422 251.00747680664062 28.50519561767578 250.56747436523438 28.031862258911133 C 250.13414001464844 27.558528900146484 249.91748046875 26.871862411499023 249.91748046875 25.97186279296875 C 249.91748046875 25.065195083618164 250.14080810546875 24.35186195373535 250.5874786376953 23.831863403320312 C 251.03414916992188 23.31186294555664 251.7008056640625 23.051862716674805 252.5874786376953 23.051862716674805 M 251.0774688720703 25.97186279296875 C 251.0774688720703 25.97186279296875 251.0774688720703 26.14519500732422 251.0774688720703 26.491863250732422 C 251.0774688720703 26.831863403320312 251.19081115722656 27.148529052734375 251.41748046875 27.441862106323242 C 251.6508026123047 27.741863250732422 251.994140625 27.891862869262695 252.44747924804688 27.891862869262695 C 252.9008026123047 27.891862869262695 253.22747802734375 27.71519660949707 253.42747497558594 27.361862182617188 C 253.62747192382812 27.001861572265625 253.72747802734375 26.481863021850586 253.72747802734375 25.801862716674805 C 253.72747802734375 25.115196228027344 253.6141357421875 24.628528594970703 253.38748168945312 24.341861724853516 C 253.1608123779297 24.055194854736328 252.84747314453125 23.911861419677734 252.44747924804688 23.911861419677734 C 251.93414306640625 23.911861419677734 251.5774688720703 24.085195541381836 251.37747192382812 24.431861877441406 C 251.17747497558594 24.77853012084961 251.0774688720703 25.29186248779297 251.0774688720703 25.97186279296875 ZM 256.4031982421875 24.911861419677734 C 256.4031982421875 24.29852867126465 256.34320068359375 23.745195388793945 256.22320556640625 23.251861572265625 L 257.07318115234375 23.141862869262695 L 257.273193359375 23.65186309814453 C 257.8465270996094 23.251861572265625 258.4398498535156 23.051862716674805 259.0531921386719 23.051862716674805 C 259.65985107421875 23.051862716674805 260.1065368652344 23.2485294342041 260.3931884765625 23.641862869262695 C 260.9398498535156 23.2485294342041 261.52984619140625 23.051862716674805 262.1632080078125 23.051862716674805 C 262.78985595703125 23.051862716674805 263.2431945800781 23.218528747558594 263.523193359375 23.551862716674805 C 263.80987548828125 23.885196685791016 263.95318603515625 24.385196685791016 263.95318603515625 25.051862716674805 L 263.95318603515625 28.621862411499023 L 262.8531799316406 28.621862411499023 L 262.8531799316406 25.251861572265625 C 262.8531799316406 24.591861724853516 262.696533203125 24.181861877441406 262.3831787109375 24.021862030029297 C 262.2431945800781 23.948528289794922 262.0698547363281 23.911861419677734 261.8631896972656 23.911861419677734 C 261.5098571777344 23.911861419677734 261.1131896972656 24.065195083618164 260.6731872558594 24.371862411499023 C 260.71319580078125 24.578529357910156 260.7331848144531 24.805194854736328 260.7331848144531 25.051862716674805 L 260.7331848144531 28.621862411499023 L 259.6331787109375 28.621862411499023 L 259.6331787109375 25.251861572265625 C 259.6331787109375 24.831863403320312 259.5698547363281 24.501861572265625 259.4432067871094 24.26186180114746 C 259.3165283203125 24.02853012084961 259.0531921386719 23.911861419677734 258.6531982421875 23.911861419677734 C 258.2598571777344 23.911861419677734 257.87652587890625 24.058528900146484 257.5032043457031 24.35186195373535 L 257.5032043457031 28.621862411499023 L 256.4031982421875 28.621862411499023 L 256.4031982421875 24.911861419677734 ZM 269.4355163574219 21.56186294555664 L 267.2655029296875 22.361862182617188 L 267.0155029296875 21.931861877441406 C 267.2288513183594 21.718528747558594 267.558837890625 21.458528518676758 268.0054931640625 21.15186309814453 C 268.4521789550781 20.838529586791992 268.7355041503906 20.681861877441406 268.8554992675781 20.681861877441406 C 268.9754943847656 20.681861877441406 269.1021728515625 20.795196533203125 269.2355041503906 21.021862030029297 C 269.36883544921875 21.2485294342041 269.4355163574219 21.428529739379883 269.4355163574219 21.56186294555664 M 269.905517578125 23.51186180114746 L 269.905517578125 27.321863174438477 C 269.905517578125 27.56186294555664 269.9321594238281 27.72186279296875 269.9855041503906 27.801862716674805 C 270.0388488769531 27.88186264038086 270.17218017578125 27.92186164855957 270.385498046875 27.92186164855957 L 270.4255065917969 28.56186294555664 C 270.25885009765625 28.621862411499023 270.0788269042969 28.65186309814453 269.885498046875 28.65186309814453 C 269.3521728515625 28.65186309814453 269.0354919433594 28.411863327026367 268.9355163574219 27.931861877441406 C 268.57550048828125 28.47186279296875 268.0455017089844 28.741863250732422 267.3454895019531 28.741863250732422 C 266.6388244628906 28.741863250732422 266.1121826171875 28.481863021850586 265.7655029296875 27.961862564086914 C 265.4255065917969 27.435195922851562 265.2554931640625 26.758529663085938 265.2554931640625 25.931861877441406 C 265.2554931640625 25.105195999145508 265.48883056640625 24.418529510498047 265.95550537109375 23.871862411499023 C 266.4288330078125 23.3251953125 267.058837890625 23.051862716674805 267.8454895019531 23.051862716674805 C 268.1654968261719 23.051862716674805 268.5388488769531 23.10186195373535 268.96551513671875 23.201862335205078 C 269.385498046875 23.301862716674805 269.6988220214844 23.405195236206055 269.905517578125 23.51186180114746 M 266.4154968261719 26.021862030029297 C 266.4154968261719 26.021862030029297 266.4154968261719 26.185195922851562 266.4154968261719 26.51186180114746 C 266.4154968261719 26.845195770263672 266.5155029296875 27.15852928161621 266.71551513671875 27.451862335205078 C 266.9154968261719 27.745195388793945 267.2088317871094 27.891862869262695 267.5954895019531 27.891862869262695 C 267.9754943847656 27.891862869262695 268.27215576171875 27.75519561767578 268.4855041503906 27.481863021850586 C 268.6988220214844 27.21519660949707 268.8055114746094 26.885196685791016 268.8055114746094 26.491863250732422 L 268.8055114746094 24.04186248779297 C 268.5388488769531 23.955196380615234 268.2355041503906 23.911861419677734 267.8955078125 23.911861419677734 C 267.3821716308594 23.911861419677734 267.0054931640625 24.098529815673828 266.7655029296875 24.47186279296875 C 266.53216552734375 24.845195770263672 266.4154968261719 25.361862182617188 266.4154968261719 26.021862030029297 ZM 272.336181640625 22.081863403320312 L 273.1961975097656 21.97186279296875 L 273.1961975097656 23.371862411499023 L 274.77618408203125 23.371862411499023 L 274.65618896484375 24.10186195373535 L 273.1961975097656 24.10186195373535 L 273.1961975097656 26.841861724853516 C 273.1961975097656 27.208528518676758 273.25286865234375 27.475194931030273 273.3662109375 27.641862869262695 C 273.4795227050781 27.808528900146484 273.65618896484375 27.891862869262695 273.8962097167969 27.891862869262695 C 274.1295166015625 27.891862869262695 274.3962097167969 27.861862182617188 274.6961975097656 27.801862716674805 L 274.836181640625 28.551862716674805 C 274.4095153808594 28.678529739379883 273.9995422363281 28.741863250732422 273.606201171875 28.741863250732422 C 273.0595397949219 28.741863250732422 272.6695251464844 28.595195770263672 272.4361877441406 28.301862716674805 C 272.20953369140625 28.015195846557617 272.09619140625 27.60186195373535 272.09619140625 27.06186294555664 L 272.09619140625 24.10186195373535 L 271.336181640625 24.10186195373535 L 271.336181640625 23.47186279296875 L 272.09619140625 23.371862411499023 L 272.336181640625 22.081863403320312 ZM 276.8390197753906 20.871862411499023 C 277.0123596191406 20.871862411499023 277.1556701660156 20.925195693969727 277.2690124511719 21.031862258911133 C 277.3823547363281 21.13186264038086 277.43902587890625 21.288528442382812 277.43902587890625 21.501861572265625 C 277.43902587890625 21.941862106323242 277.2090148925781 22.161861419677734 276.7490234375 22.161861419677734 C 276.58233642578125 22.161861419677734 276.4456787109375 22.111862182617188 276.3390197753906 22.01186180114746 C 276.23236083984375 21.905195236206055 276.17901611328125 21.7485294342041 276.17901611328125 21.54186248779297 C 276.17901611328125 21.095195770263672 276.3990173339844 20.871862411499023 276.8390197753906 20.871862411499023 M 276.2590026855469 28.621862411499023 L 276.2590026855469 23.241863250732422 L 277.3590087890625 23.10186195373535 L 277.3590087890625 28.621862411499023 L 276.2590026855469 28.621862411499023 ZM 281.3000793457031 28.741863250732422 C 281.3000793457031 28.741863250732422 281.1067199707031 28.741863250732422 280.7200622558594 28.741863250732422 C 280.32672119140625 28.741863250732422 279.9200744628906 28.47852897644043 279.50006103515625 27.951862335205078 C 279.080078125 27.418529510498047 278.87005615234375 26.738529205322266 278.87005615234375 25.911861419677734 C 278.87005615234375 25.085195541381836 279.0934143066406 24.40186309814453 279.5400695800781 23.861862182617188 C 279.993408203125 23.321861267089844 280.6167297363281 23.051862716674805 281.4100646972656 23.051862716674805 C 282.07672119140625 23.051862716674805 282.6900634765625 23.1951961517334 283.25006103515625 23.481863021850586 L 282.9400634765625 24.22186279296875 C 282.4800720214844 24.015195846557617 282.04339599609375 23.911861419677734 281.63006591796875 23.911861419677734 C 281.0900573730469 23.911861419677734 280.6900634765625 24.091861724853516 280.4300537109375 24.451862335205078 C 280.16339111328125 24.81186294555664 280.0300598144531 25.26186180114746 280.0300598144531 25.801862716674805 C 280.0300598144531 27.1951961517334 280.5667419433594 27.891862869262695 281.64007568359375 27.891862869262695 C 282.0467224121094 27.891862869262695 282.46673583984375 27.775196075439453 282.9000549316406 27.54186248779297 L 283.26007080078125 28.251861572265625 C 282.7333984375 28.578529357910156 282.080078125 28.741863250732422 281.3000793457031 28.741863250732422 ZM 288.64971923828125 23.51186180114746 L 288.64971923828125 27.321863174438477 C 288.64971923828125 27.56186294555664 288.6763610839844 27.72186279296875 288.7297058105469 27.801862716674805 C 288.7830505371094 27.88186264038086 288.9163818359375 27.92186164855957 289.12969970703125 27.92186164855957 L 289.1697082519531 28.56186294555664 C 289.0030517578125 28.621862411499023 288.8230285644531 28.65186309814453 288.62969970703125 28.65186309814453 C 288.09637451171875 28.65186309814453 287.7796936035156 28.411863327026367 287.6797180175781 27.931861877441406 C 287.3197021484375 28.47186279296875 286.7897033691406 28.741863250732422 286.0896911621094 28.741863250732422 C 285.3830261230469 28.741863250732422 284.85638427734375 28.481863021850586 284.50970458984375 27.961862564086914 C 284.1697082519531 27.435195922851562 283.99969482421875 26.758529663085938 283.99969482421875 25.931861877441406 C 283.99969482421875 25.105195999145508 284.2330322265625 24.418529510498047 284.69970703125 23.871862411499023 C 285.17303466796875 23.3251953125 285.80303955078125 23.051862716674805 286.5896911621094 23.051862716674805 C 286.9096984863281 23.051862716674805 287.2830505371094 23.10186195373535 287.709716796875 23.201862335205078 C 288.12969970703125 23.301862716674805 288.4430236816406 23.405195236206055 288.64971923828125 23.51186180114746 M 285.1596984863281 26.021862030029297 C 285.1596984863281 26.021862030029297 285.1596984863281 26.185195922851562 285.1596984863281 26.51186180114746 C 285.1596984863281 26.845195770263672 285.25970458984375 27.15852928161621 285.459716796875 27.451862335205078 C 285.6596984863281 27.745195388793945 285.9530334472656 27.891862869262695 286.3396911621094 27.891862869262695 C 286.7196960449219 27.891862869262695 287.016357421875 27.75519561767578 287.2297058105469 27.481863021850586 C 287.4430236816406 27.21519660949707 287.5497131347656 26.885196685791016 287.5497131347656 26.491863250732422 L 287.5497131347656 24.04186248779297 C 287.2830505371094 23.955196380615234 286.9797058105469 23.911861419677734 286.63970947265625 23.911861419677734 C 286.1263732910156 23.911861419677734 285.74969482421875 24.098529815673828 285.50970458984375 24.47186279296875 C 285.2763671875 24.845195770263672 285.1596984863281 25.361862182617188 285.1596984863281 26.021862030029297 ZM 293.7778625488281 28.621862411499023 L 293.7778625488281 21.341861724853516 C 294.3111877441406 21.25519561767578 295.12451171875 21.211862564086914 296.2178649902344 21.211862564086914 C 296.9512023925781 21.211862564086914 297.5145263671875 21.421863555908203 297.9078674316406 21.841861724853516 C 298.3011779785156 22.26186180114746 298.49786376953125 22.828529357910156 298.49786376953125 23.54186248779297 C 298.49786376953125 24.25519561767578 298.2645263671875 24.848529815673828 297.7978515625 25.321863174438477 C 297.32452392578125 25.788528442382812 296.6778564453125 26.021862030029297 295.85784912109375 26.021862030029297 C 295.6978454589844 26.021862030029297 295.3912048339844 26.015195846557617 294.9378662109375 26.001861572265625 L 294.9378662109375 28.621862411499023 L 293.7778625488281 28.621862411499023 M 294.9378662109375 25.10186195373535 C 295.1045227050781 25.10852813720703 295.3711853027344 25.111862182617188 295.73785400390625 25.111862182617188 C 296.2978515625 25.111862182617188 296.69451904296875 24.98519515991211 296.9278564453125 24.731863021850586 C 297.16119384765625 24.48519515991211 297.2778625488281 24.118528366088867 297.2778625488281 23.63186264038086 C 297.2778625488281 23.15186309814453 297.1678466796875 22.781862258911133 296.9478454589844 22.521862030029297 C 296.7345275878906 22.26186180114746 296.37451171875 22.13186264038086 295.86785888671875 22.13186264038086 C 295.5611877441406 22.13186264038086 295.2511901855469 22.141862869262695 294.9378662109375 22.161861419677734 L 294.9378662109375 25.10186195373535 ZM 299.8779296875 20.931861877441406 L 300.9779357910156 20.79186248779297 L 300.9779357910156 26.941862106323242 C 300.9779357910156 27.5751953125 301.1579284667969 27.891862869262695 301.5179443359375 27.891862869262695 C 301.6046142578125 27.891862869262695 301.7679443359375 27.865196228027344 302.0079345703125 27.81186294555664 L 302.137939453125 28.571863174438477 C 302.13128662109375 28.571863174438477 302.1046142578125 28.58186149597168 302.0579528808594 28.60186195373535 C 302.0046081542969 28.621862411499023 301.9446105957031 28.641862869262695 301.8779296875 28.661863327026367 C 301.7046203613281 28.71519660949707 301.4979553222656 28.741863250732422 301.2579345703125 28.741863250732422 C 300.78460693359375 28.741863250732422 300.43792724609375 28.585195541381836 300.2179260253906 28.271862030029297 C 299.99127197265625 27.951862335205078 299.8779296875 27.515195846557617 299.8779296875 26.961862564086914 L 299.8779296875 20.931861877441406 ZM 307.48394775390625 23.10186195373535 L 307.48394775390625 27.35186195373535 C 307.48394775390625 27.591861724853516 307.5139465332031 27.745195388793945 307.5739440917969 27.81186294555664 C 307.6339416503906 27.885196685791016 307.7639465332031 27.92186164855957 307.96392822265625 27.92186164855957 L 308.0039367675781 28.56186294555664 C 307.8372802734375 28.621862411499023 307.6572570800781 28.65186309814453 307.46392822265625 28.65186309814453 C 307.05059814453125 28.65186309814453 306.75726318359375 28.488529205322266 306.58392333984375 28.161863327026367 C 306.1439514160156 28.54852867126465 305.5906066894531 28.741863250732422 304.9239501953125 28.741863250732422 C 303.69061279296875 28.741863250732422 303.0739440917969 28.0751953125 303.0739440917969 26.741863250732422 L 303.0739440917969 23.241863250732422 L 304.1739501953125 23.10186195373535 L 304.1739501953125 26.54186248779297 C 304.1739501953125 27.441862106323242 304.5306091308594 27.891862869262695 305.2439270019531 27.891862869262695 C 305.7305908203125 27.891862869262695 306.110595703125 27.7485294342041 306.3839416503906 27.461862564086914 L 306.3839416503906 23.241863250732422 L 307.48394775390625 23.10186195373535 ZM 309.5763854980469 24.911861419677734 C 309.5763854980469 24.29852867126465 309.5163879394531 23.745195388793945 309.3963928222656 23.251861572265625 L 310.24639892578125 23.141862869262695 L 310.50640869140625 23.81186294555664 C 310.9330749511719 23.305194854736328 311.4163818359375 23.051862716674805 311.9563903808594 23.051862716674805 C 312.31640625 23.051862716674805 312.5964050292969 23.13852882385254 312.79638671875 23.31186294555664 C 312.99639892578125 23.47852897644043 313.0964050292969 23.718528747558594 313.0964050292969 24.031862258911133 C 313.0964050292969 24.345195770263672 313.04638671875 24.621862411499023 312.9464111328125 24.861862182617188 L 312.06640625 24.741863250732422 C 312.06640625 24.441862106323242 312.0364074707031 24.22852897644043 311.9764099121094 24.10186195373535 C 311.9230651855469 23.975196838378906 311.806396484375 23.911861419677734 311.62640380859375 23.911861419677734 C 311.4397277832031 23.911861419677734 311.2597351074219 23.981863021850586 311.0863952636719 24.121862411499023 C 310.9130554199219 24.26852798461914 310.7763977050781 24.428529739379883 310.6763916015625 24.60186195373535 L 310.6763916015625 28.621862411499023 L 309.5763854980469 28.621862411499023 L 309.5763854980469 24.911861419677734 ZM 314.7557678222656 20.871862411499023 C 314.9291076660156 20.871862411499023 315.0724182128906 20.925195693969727 315.1857604980469 21.031862258911133 C 315.2991027832031 21.13186264038086 315.35577392578125 21.288528442382812 315.35577392578125 21.501861572265625 C 315.35577392578125 21.941862106323242 315.1257629394531 22.161861419677734 314.665771484375 22.161861419677734 C 314.49908447265625 22.161861419677734 314.3624267578125 22.111862182617188 314.2557678222656 22.01186180114746 C 314.14910888671875 21.905195236206055 314.09576416015625 21.7485294342041 314.09576416015625 21.54186248779297 C 314.09576416015625 21.095195770263672 314.3157653808594 20.871862411499023 314.7557678222656 20.871862411499023 M 314.1757507324219 28.621862411499023 L 314.1757507324219 23.241863250732422 L 315.2757568359375 23.10186195373535 L 315.2757568359375 28.621862411499023 L 314.1757507324219 28.621862411499023 ZM 317.3168029785156 24.911861419677734 C 317.3168029785156 24.29852867126465 317.2568054199219 23.745195388793945 317.1368103027344 23.251861572265625 L 317.98681640625 23.141862869262695 L 318.18682861328125 23.65186309814453 C 318.75347900390625 23.251861572265625 319.3368225097656 23.051862716674805 319.93682861328125 23.051862716674805 C 321.17681884765625 23.051862716674805 321.79681396484375 23.718528747558594 321.79681396484375 25.051862716674805 L 321.79681396484375 28.621862411499023 L 320.6968078613281 28.621862411499023 L 320.6968078613281 25.251861572265625 C 320.6968078613281 24.35852813720703 320.34014892578125 23.911861419677734 319.6268005371094 23.911861419677734 C 319.2068176269531 23.911861419677734 318.803466796875 24.058528900146484 318.41680908203125 24.35186195373535 L 318.41680908203125 28.621862411499023 L 317.3168029785156 28.621862411499023 L 317.3168029785156 24.911861419677734 ZM 327.7494812011719 23.51186180114746 L 327.7494812011719 27.321863174438477 C 327.7494812011719 27.56186294555664 327.776123046875 27.72186279296875 327.8294677734375 27.801862716674805 C 327.8828125 27.88186264038086 328.0161437988281 27.92186164855957 328.2294616699219 27.92186164855957 L 328.26947021484375 28.56186294555664 C 328.1028137207031 28.621862411499023 327.92279052734375 28.65186309814453 327.7294616699219 28.65186309814453 C 327.1961364746094 28.65186309814453 326.87945556640625 28.411863327026367 326.77947998046875 27.931861877441406 C 326.4194641113281 28.47186279296875 325.88946533203125 28.741863250732422 325.189453125 28.741863250732422 C 324.4827880859375 28.741863250732422 323.9561462402344 28.481863021850586 323.6094665527344 27.961862564086914 C 323.26947021484375 27.435195922851562 323.0994567871094 26.758529663085938 323.0994567871094 25.931861877441406 C 323.0994567871094 25.105195999145508 323.3327941894531 24.418529510498047 323.7994689941406 23.871862411499023 C 324.2727966308594 23.3251953125 324.9028015136719 23.051862716674805 325.689453125 23.051862716674805 C 326.00946044921875 23.051862716674805 326.3828125 23.10186195373535 326.8094787597656 23.201862335205078 C 327.2294616699219 23.301862716674805 327.54278564453125 23.405195236206055 327.7494812011719 23.51186180114746 M 324.25946044921875 26.021862030029297 C 324.25946044921875 26.021862030029297 324.25946044921875 26.185195922851562 324.25946044921875 26.51186180114746 C 324.25946044921875 26.845195770263672 324.3594665527344 27.15852928161621 324.5594787597656 27.451862335205078 C 324.75946044921875 27.745195388793945 325.05279541015625 27.891862869262695 325.439453125 27.891862869262695 C 325.8194580078125 27.891862869262695 326.1161193847656 27.75519561767578 326.3294677734375 27.481863021850586 C 326.54278564453125 27.21519660949707 326.64947509765625 26.885196685791016 326.64947509765625 26.491863250732422 L 326.64947509765625 24.04186248779297 C 326.3828125 23.955196380615234 326.0794677734375 23.911861419677734 325.7394714355469 23.911861419677734 C 325.22613525390625 23.911861419677734 324.8494567871094 24.098529815673828 324.6094665527344 24.47186279296875 C 324.3761291503906 24.845195770263672 324.25946044921875 25.361862182617188 324.25946044921875 26.021862030029297 ZM 331.7401428222656 28.741863250732422 C 331.7401428222656 28.741863250732422 331.5467834472656 28.741863250732422 331.1601257324219 28.741863250732422 C 330.76678466796875 28.741863250732422 330.3601379394531 28.47852897644043 329.94012451171875 27.951862335205078 C 329.5201416015625 27.418529510498047 329.31011962890625 26.738529205322266 329.31011962890625 25.911861419677734 C 329.31011962890625 25.085195541381836 329.5334777832031 24.40186309814453 329.9801330566406 23.861862182617188 C 330.4334716796875 23.321861267089844 331.0567932128906 23.051862716674805 331.8501281738281 23.051862716674805 C 332.51678466796875 23.051862716674805 333.130126953125 23.1951961517334 333.69012451171875 23.481863021850586 L 333.380126953125 24.22186279296875 C 332.9201354980469 24.015195846557617 332.48345947265625 23.911861419677734 332.07012939453125 23.911861419677734 C 331.5301208496094 23.911861419677734 331.130126953125 24.091861724853516 330.8701171875 24.451862335205078 C 330.60345458984375 24.81186294555664 330.4701232910156 25.26186180114746 330.4701232910156 25.801862716674805 C 330.4701232910156 27.1951961517334 331.0068054199219 27.891862869262695 332.08013916015625 27.891862869262695 C 332.4867858886719 27.891862869262695 332.90679931640625 27.775196075439453 333.3401184082031 27.54186248779297 L 333.70013427734375 28.251861572265625 C 333.1734619140625 28.578529357910156 332.5201416015625 28.741863250732422 331.7401428222656 28.741863250732422 ZM 335.5498352050781 20.871862411499023 C 335.7231750488281 20.871862411499023 335.8664855957031 20.925195693969727 335.9798278808594 21.031862258911133 C 336.0931701660156 21.13186264038086 336.14984130859375 21.288528442382812 336.14984130859375 21.501861572265625 C 336.14984130859375 21.941862106323242 335.9198303222656 22.161861419677734 335.4598388671875 22.161861419677734 C 335.29315185546875 22.161861419677734 335.156494140625 22.111862182617188 335.0498352050781 22.01186180114746 C 334.94317626953125 21.905195236206055 334.88983154296875 21.7485294342041 334.88983154296875 21.54186248779297 C 334.88983154296875 21.095195770263672 335.1098327636719 20.871862411499023 335.5498352050781 20.871862411499023 M 334.9698181152344 28.621862411499023 L 334.9698181152344 23.241863250732422 L 336.06982421875 23.10186195373535 L 336.06982421875 28.621862411499023 L 334.9698181152344 28.621862411499023 ZM 340.2508544921875 23.051862716674805 C 340.9175109863281 23.051862716674805 341.467529296875 23.28519630432129 341.9008483886719 23.751861572265625 C 342.3408508300781 24.218528747558594 342.56085205078125 24.90186309814453 342.56085205078125 25.801862716674805 C 342.56085205078125 26.708528518676758 342.3375244140625 27.425195693969727 341.8908386230469 27.951862335205078 C 341.4441833496094 28.47852897644043 340.774169921875 28.741863250732422 339.880859375 28.741863250732422 C 339.2208557128906 28.741863250732422 338.67083740234375 28.50519561767578 338.2308654785156 28.031862258911133 C 337.7975158691406 27.558528900146484 337.5808410644531 26.871862411499023 337.5808410644531 25.97186279296875 C 337.5808410644531 25.065195083618164 337.80419921875 24.35186195373535 338.2508544921875 23.831863403320312 C 338.697509765625 23.31186294555664 339.36419677734375 23.051862716674805 340.2508544921875 23.051862716674805 M 338.7408447265625 25.97186279296875 C 338.7408447265625 25.97186279296875 338.7408447265625 26.14519500732422 338.7408447265625 26.491863250732422 C 338.7408447265625 26.831863403320312 338.85418701171875 27.148529052734375 339.0808410644531 27.441862106323242 C 339.3141784667969 27.741863250732422 339.65753173828125 27.891862869262695 340.11083984375 27.891862869262695 C 340.5641784667969 27.891862869262695 340.8908386230469 27.71519660949707 341.0908508300781 27.361862182617188 C 341.2908630371094 27.001861572265625 341.3908386230469 26.481863021850586 341.3908386230469 25.801862716674805 C 341.3908386230469 25.115196228027344 341.27752685546875 24.628528594970703 341.05084228515625 24.341861724853516 C 340.8241882324219 24.055194854736328 340.5108642578125 23.911861419677734 340.11083984375 23.911861419677734 C 339.5975036621094 23.911861419677734 339.2408447265625 24.085195541381836 339.0408630371094 24.431861877441406 C 338.8408508300781 24.77853012084961 338.7408447265625 25.29186248779297 338.7408447265625 25.97186279296875 ZM 344.0665588378906 24.911861419677734 C 344.0665588378906 24.29852867126465 344.0065612792969 23.745195388793945 343.8865661621094 23.251861572265625 L 344.736572265625 23.141862869262695 L 344.93658447265625 23.65186309814453 C 345.50323486328125 23.251861572265625 346.0865783691406 23.051862716674805 346.68658447265625 23.051862716674805 C 347.92657470703125 23.051862716674805 348.54656982421875 23.718528747558594 348.54656982421875 25.051862716674805 L 348.54656982421875 28.621862411499023 L 347.4465637207031 28.621862411499023 L 347.4465637207031 25.251861572265625 C 347.4465637207031 24.35852813720703 347.08990478515625 23.911861419677734 346.3765563964844 23.911861419677734 C 345.9565734863281 23.911861419677734 345.55322265625 24.058528900146484 345.16656494140625 24.35186195373535 L 345.16656494140625 28.621862411499023 L 344.0665588378906 28.621862411499023 L 344.0665588378906 24.911861419677734 ZM 354.499267578125 23.51186180114746 L 354.499267578125 27.321863174438477 C 354.499267578125 27.56186294555664 354.5259094238281 27.72186279296875 354.5792541503906 27.801862716674805 C 354.6325988769531 27.88186264038086 354.76593017578125 27.92186164855957 354.979248046875 27.92186164855957 L 355.0192565917969 28.56186294555664 C 354.85260009765625 28.621862411499023 354.6725769042969 28.65186309814453 354.479248046875 28.65186309814453 C 353.9459228515625 28.65186309814453 353.6292419433594 28.411863327026367 353.5292663574219 27.931861877441406 C 353.16925048828125 28.47186279296875 352.6392517089844 28.741863250732422 351.9392395019531 28.741863250732422 C 351.2325744628906 28.741863250732422 350.7059326171875 28.481863021850586 350.3592529296875 27.961862564086914 C 350.0192565917969 27.435195922851562 349.8492431640625 26.758529663085938 349.8492431640625 25.931861877441406 C 349.8492431640625 25.105195999145508 350.08258056640625 24.418529510498047 350.54925537109375 23.871862411499023 C 351.0225830078125 23.3251953125 351.652587890625 23.051862716674805 352.4392395019531 23.051862716674805 C 352.7592468261719 23.051862716674805 353.1325988769531 23.10186195373535 353.55926513671875 23.201862335205078 C 353.979248046875 23.301862716674805 354.2925720214844 23.405195236206055 354.499267578125 23.51186180114746 M 351.0092468261719 26.021862030029297 C 351.0092468261719 26.021862030029297 351.0092468261719 26.185195922851562 351.0092468261719 26.51186180114746 C 351.0092468261719 26.845195770263672 351.1092529296875 27.15852928161621 351.30926513671875 27.451862335205078 C 351.5092468261719 27.745195388793945 351.8025817871094 27.891862869262695 352.1892395019531 27.891862869262695 C 352.5692443847656 27.891862869262695 352.86590576171875 27.75519561767578 353.0792541503906 27.481863021850586 C 353.2925720214844 27.21519660949707 353.3992614746094 26.885196685791016 353.3992614746094 26.491863250732422 L 353.3992614746094 24.04186248779297 C 353.1325988769531 23.955196380615234 352.8292541503906 23.911861419677734 352.4892578125 23.911861419677734 C 351.9759216308594 23.911861419677734 351.5992431640625 24.098529815673828 351.3592529296875 24.47186279296875 C 351.12591552734375 24.845195770263672 351.0092468261719 25.361862182617188 351.0092468261719 26.021862030029297 ZM 356.58990478515625 20.931861877441406 L 357.6899108886719 20.79186248779297 L 357.6899108886719 26.941862106323242 C 357.6899108886719 27.5751953125 357.8699035644531 27.891862869262695 358.22991943359375 27.891862869262695 C 358.31658935546875 27.891862869262695 358.47991943359375 27.865196228027344 358.71990966796875 27.81186294555664 L 358.84991455078125 28.571863174438477 C 358.84326171875 28.571863174438477 358.81658935546875 28.58186149597168 358.7699279785156 28.60186195373535 C 358.7165832519531 28.621862411499023 358.6565856933594 28.641862869262695 358.58990478515625 28.661863327026367 C 358.4165954589844 28.71519660949707 358.2099304199219 28.741863250732422 357.96990966796875 28.741863250732422 C 357.49658203125 28.741863250732422 357.14990234375 28.585195541381836 356.9299011230469 28.271862030029297 C 356.7032470703125 27.951862335205078 356.58990478515625 27.515195846557617 356.58990478515625 26.961862564086914 L 356.58990478515625 20.931861877441406 Z" transform="matrix(1.7658021450042725, 0, 0, 1.7658021450042725, -127.54033660888672, -18.955135345458984)" style="fill: rgb(225, 225, 225); white-space: pre; color: rgb(51, 51, 51);"/></g></svg>